<svg version="1.1" id="Layer_1" xmlns="http://www.w3.org/2000/svg" xmlns:xlink="http://www.w3.org/1999/xlink" x="0px" y="0px"
	 width="100%" viewBox="0 0 443 290" enable-background="new 0 0 443 290" xml:space="preserve">
<path fill="#FEFFFF" opacity="1.000000" stroke="none" 
	d="
M188.000000,291.000000 
	C125.686264,291.000000 63.372524,291.000000 1.029392,291.000000 
	C1.029392,194.383316 1.029392,97.766632 1.029392,1.074974 
	C148.570221,1.074974 296.140503,1.074974 443.855408,1.074974 
	C443.855408,97.666527 443.855408,194.333237 443.855408,291.000000 
	C384.232788,291.000000 324.585052,291.000000 264.611450,290.669006 
	C265.518738,289.858856 266.756866,289.392059 267.984344,288.898682 
	C313.144714,270.746429 341.020935,238.463287 349.251495,189.639313 
	C349.757690,185.574951 349.953766,181.738525 350.296692,177.463135 
	C350.558960,176.033173 350.775238,175.042175 350.775269,174.051193 
	C350.776001,128.389465 350.757874,82.727737 350.839081,36.655704 
	C349.853455,35.219059 348.778290,33.306808 347.686737,33.297398 
	C326.554901,33.115170 305.421051,33.134911 284.288147,33.229351 
	C283.487762,33.232929 282.692596,34.402599 281.850739,35.494072 
	C281.853180,46.641457 281.899933,57.323647 282.147522,68.398468 
	C289.165527,68.906433 295.985107,68.946625 302.798950,69.165237 
	C306.897095,69.296722 310.986328,69.706200 315.022827,70.457047 
	C314.952789,107.274254 314.939453,143.625168 314.963440,179.978271 
	C315.000763,179.980469 314.935486,179.943909 314.759064,180.154144 
	C314.566742,180.886230 314.550842,181.408066 314.406006,182.257080 
	C314.263458,183.050858 314.249817,183.517456 314.113800,184.311554 
	C313.995636,185.101501 313.999847,185.563980 313.908630,186.400757 
	C313.630096,187.586258 313.446136,188.397308 313.264008,189.208740 
	C304.205811,229.566574 272.691498,258.048950 231.339005,260.498199 
	C195.674850,262.610504 167.970200,247.131180 148.843231,216.787506 
	C141.798904,205.612152 138.623734,193.077942 136.416534,179.757507 
	C136.448181,142.530121 136.421906,105.795792 136.839523,69.061798 
	C147.901276,69.062126 158.519135,69.062126 169.766998,69.062126 
	C169.766998,58.409649 169.558075,48.291836 169.867065,38.189865 
	C169.995468,33.992653 168.404877,33.237167 164.660751,33.268291 
	C145.340027,33.428875 126.017342,33.344269 106.695366,33.369030 
	C104.903793,33.371326 103.112434,33.540844 101.215538,33.638126 
	C101.059685,35.028614 100.855492,35.998783 100.855919,36.968861 
	C100.876411,83.607704 99.643311,130.291687 101.297531,176.873062 
	C103.057800,226.440735 128.612915,261.939606 172.487686,284.427643 
	C177.471939,286.982330 182.820419,288.826416 188.000000,291.000000 
M209.897141,211.328613 
	C219.956421,211.272797 230.015717,211.216965 240.707596,211.337036 
	C241.136398,211.273987 241.565216,211.210938 242.781693,210.717484 
	C242.781693,193.287613 242.781693,175.857727 242.781693,157.938889 
	C245.521408,157.938889 247.317932,157.938980 249.114456,157.938889 
	C263.447693,157.938141 277.781586,157.998123 292.113281,157.849121 
	C293.663879,157.832993 295.201874,156.606476 296.911774,155.025452 
	C296.862518,144.701950 296.813293,134.378448 296.867645,123.524521 
	C296.572174,123.375175 296.276703,123.225830 295.065002,122.873299 
	C277.732025,122.779968 260.399078,122.686646 243.123993,122.268478 
	C243.123993,122.268478 242.936462,121.997002 243.048294,121.065269 
	C243.048294,103.745415 243.048294,86.425568 243.048294,69.130806 
	C231.178864,69.130806 220.089218,69.130806 208.515228,69.208282 
	C208.208893,69.465958 208.165482,69.762276 208.235367,71.009300 
	C208.292618,87.017838 208.349869,103.026375 208.193634,119.664726 
	C208.264191,120.096458 208.334732,120.528191 208.209381,121.555740 
	C208.124390,121.964691 208.039383,122.373642 207.022888,122.792747 
	C190.016891,122.848755 173.010910,122.904762 155.369247,122.939842 
	C155.145523,123.263649 154.921799,123.587456 154.478699,124.711639 
	C154.543182,135.121201 154.607681,145.530746 154.390854,156.429993 
	C155.251602,156.826553 156.112350,157.223129 157.896851,157.798218 
	C174.272202,157.743942 190.647537,157.689651 207.492691,157.885635 
	C207.667358,157.916794 207.842041,157.947952 208.119583,158.914566 
	C208.213165,175.918869 208.306747,192.923187 208.265564,210.427094 
	C208.509384,210.629379 208.753220,210.831680 209.897141,211.328613 
z"/>
<path fill="#456AF4" opacity="1.000000" stroke="none" 
	d="
M188.468658,291.000000 
	C182.820419,288.826416 177.471939,286.982330 172.487686,284.427643 
	C128.612915,261.939606 103.057800,226.440735 101.297531,176.873062 
	C99.643311,130.291687 100.876411,83.607704 100.855919,36.968861 
	C100.855492,35.998783 101.059685,35.028614 101.215538,33.638126 
	C103.112434,33.540844 104.903793,33.371326 106.695366,33.369030 
	C126.017342,33.344269 145.340027,33.428875 164.660751,33.268291 
	C168.404877,33.237167 169.995468,33.992653 169.867065,38.189865 
	C169.558075,48.291836 169.766998,58.409649 169.766998,69.062126 
	C158.519135,69.062126 147.901276,69.062126 136.460464,69.271286 
	C135.425812,70.429474 135.029892,71.378342 135.029022,72.327568 
	C134.997208,106.959991 134.986893,141.592484 135.059235,176.224792 
	C135.062042,177.567627 135.906418,178.908676 136.358643,180.250565 
	C138.623734,193.077942 141.798904,205.612152 148.843231,216.787506 
	C167.970200,247.131180 195.674850,262.610504 231.339005,260.498199 
	C272.691498,258.048950 304.205811,229.566574 313.264008,189.208740 
	C313.446136,188.397308 313.630096,187.586258 314.126404,186.259216 
	C314.371796,185.156937 314.303986,184.570511 314.236206,183.984070 
	C314.249817,183.517456 314.263458,183.050858 314.567078,182.047760 
	C314.883179,180.988815 314.909332,180.466370 314.935486,179.943909 
	C314.935486,179.943909 315.000763,179.980469 315.268738,179.693710 
	C315.679443,178.097809 315.946259,176.788742 315.946869,175.479523 
	C315.963257,140.318466 315.952301,105.157402 315.865784,69.603424 
	C314.119049,68.821327 312.456451,68.115944 310.785309,68.095154 
	C301.173523,67.975616 291.559753,68.018219 281.946655,68.005844 
	C281.899933,57.323647 281.853180,46.641457 282.325745,35.458786 
	C303.219849,34.947811 323.595215,34.870430 343.968872,35.020916 
	C346.231476,35.037628 348.484467,36.352951 350.741913,37.066013 
	C350.757874,82.727737 350.776001,128.389465 350.775269,174.051193 
	C350.775238,175.042175 350.558960,176.033173 350.027588,177.695694 
	C349.388214,182.200577 349.164795,186.033905 348.941406,189.867249 
	C341.020935,238.463287 313.144714,270.746429 267.984344,288.898682 
	C266.756866,289.392059 265.518738,289.858856 264.142761,290.669006 
	C238.979111,291.000000 213.958206,291.000000 188.468658,291.000000 
z"/>
<path fill="#466AF4" opacity="1.000000" stroke="none" 
	d="
M296.764069,124.054947 
	C296.813293,134.378448 296.862518,144.701950 296.379456,155.504501 
	C280.196869,155.998810 264.546570,156.004349 248.896332,156.033981 
	C242.367157,156.046356 242.009079,156.403107 242.004944,162.697983 
	C241.994339,178.847946 241.996796,194.997925 241.994019,211.147888 
	C241.565216,211.210938 241.136398,211.273987 240.109344,210.922607 
	C229.368332,210.337708 219.225540,210.167206 208.912933,209.971664 
	C208.743118,209.946609 208.400330,209.927490 208.400330,209.927490 
	C208.306747,192.923187 208.213165,175.918869 208.074615,158.191757 
	C208.021408,157.299072 208.013168,157.129181 207.702820,156.671616 
	C205.589142,156.256561 203.777832,156.022568 201.966034,156.018585 
	C186.647812,155.984833 171.329483,155.993088 156.007446,155.521362 
	C156.010315,144.710632 156.016937,134.367249 156.489517,124.015778 
	C172.278809,124.006004 187.602341,124.041901 202.925110,123.949127 
	C204.603821,123.938965 206.278076,123.189285 207.954391,122.782593 
	C208.039383,122.373642 208.124390,121.964691 208.467163,121.097687 
	C208.619003,120.104721 208.513062,119.569817 208.407104,119.034912 
	C208.349869,103.026375 208.292618,87.017838 208.470337,70.543312 
	C208.705322,70.077324 209.023621,70.034729 209.490723,70.026291 
	C218.609207,70.012428 227.271545,70.264900 235.907608,69.898460 
	C240.592499,69.699684 242.239349,70.905800 242.115829,75.867760 
	C241.776398,89.501915 241.964752,103.150230 242.039276,116.792419 
	C242.048767,118.528870 242.623566,120.262215 242.936462,121.997002 
	C242.936462,121.997002 243.123993,122.268478 243.301193,122.812225 
	C245.247543,123.570389 247.016129,123.965279 248.785950,123.970978 
	C264.503357,124.021576 280.220947,124.003281 296.144592,124.022751 
	C296.350677,124.040176 296.764069,124.054947 296.764069,124.054947 
z"/>
<path fill="#5B7FDF" opacity="1.000000" stroke="none" 
	d="
M242.387848,210.932678 
	C241.996796,194.997925 241.994339,178.847946 242.004944,162.697983 
	C242.009079,156.403107 242.367157,156.046356 248.896332,156.033981 
	C264.546570,156.004349 280.196869,155.998810 296.296417,155.962494 
	C295.201874,156.606476 293.663879,157.832993 292.113281,157.849121 
	C277.781586,157.998123 263.447693,157.938141 249.114456,157.938889 
	C247.317932,157.938980 245.521408,157.938889 242.781693,157.938889 
	C242.781693,175.857727 242.781693,193.287613 242.387848,210.932678 
z"/>
<path fill="#6B8DE9" opacity="1.000000" stroke="none" 
	d="
M350.839081,36.655704 
	C348.484467,36.352951 346.231476,35.037628 343.968872,35.020916 
	C323.595215,34.870430 303.219849,34.947811 282.369995,34.993591 
	C282.692596,34.402599 283.487762,33.232929 284.288147,33.229351 
	C305.421051,33.134911 326.554901,33.115170 347.686737,33.297398 
	C348.778290,33.306808 349.853455,35.219059 350.839081,36.655704 
z"/>
<path fill="#4160DD" opacity="1.000000" stroke="none" 
	d="
M136.416534,179.757507 
	C135.906418,178.908676 135.062042,177.567627 135.059235,176.224792 
	C134.986893,141.592484 134.997208,106.959991 135.029022,72.327568 
	C135.029892,71.378342 135.425812,70.429474 136.016571,69.270958 
	C136.421906,105.795792 136.448181,142.530121 136.416534,179.757507 
z"/>
<path fill="#678AE0" opacity="1.000000" stroke="none" 
	d="
M315.945984,69.996330 
	C315.952301,105.157402 315.963257,140.318466 315.946869,175.479523 
	C315.946259,176.788742 315.679443,178.097809 315.231445,179.691528 
	C314.939453,143.625168 314.952789,107.274254 315.239441,70.459297 
	C315.512726,69.995255 315.945984,69.996330 315.945984,69.996330 
z"/>
<path fill="#486BE5" opacity="1.000000" stroke="none" 
	d="
M156.011200,155.988724 
	C171.329483,155.993088 186.647812,155.984833 201.966034,156.018585 
	C203.777832,156.022568 205.589142,156.256561 207.507538,156.736130 
	C207.349731,157.197739 207.152573,157.380081 207.022888,157.635376 
	C190.647537,157.689651 174.272202,157.743942 157.312500,157.508026 
	C156.475143,156.824631 156.222137,156.431442 155.979370,156.025818 
	C155.989594,156.013367 156.011200,155.988724 156.011200,155.988724 
z"/>
<path fill="#5173D1" opacity="1.000000" stroke="none" 
	d="
M242.992371,121.531136 
	C242.623566,120.262215 242.048767,118.528870 242.039276,116.792419 
	C241.964752,103.150230 241.776398,89.501915 242.115829,75.867760 
	C242.239349,70.905800 240.592499,69.699684 235.907608,69.898460 
	C227.271545,70.264900 218.609207,70.012428 209.482208,69.800156 
	C209.006607,69.582458 208.999573,69.130806 208.999573,69.130806 
	C220.089218,69.130806 231.178864,69.130806 243.048294,69.130806 
	C243.048294,86.425568 243.048294,103.745415 242.992371,121.531136 
z"/>
<path fill="#486BE5" opacity="1.000000" stroke="none" 
	d="
M156.023544,124.023880 
	C156.016937,134.367249 156.010315,144.710632 156.007446,155.521362 
	C156.011200,155.988724 155.989594,156.013367 155.655441,155.999207 
	C155.104904,155.970139 154.888535,155.955215 154.672165,155.940308 
	C154.607681,145.530746 154.543182,135.121201 154.902466,124.334091 
	C155.535278,123.955193 155.744308,123.953835 155.970886,123.970322 
	C155.988434,123.988174 156.023544,124.023880 156.023544,124.023880 
z"/>
<path fill="#4464DB" opacity="1.000000" stroke="none" 
	d="
M295.938507,124.005318 
	C280.220947,124.003281 264.503357,124.021576 248.785950,123.970978 
	C247.016129,123.965279 245.247543,123.570389 243.272247,122.974648 
	C260.399078,122.686646 277.732025,122.779968 295.518158,123.207298 
	C295.971313,123.541298 295.938507,124.005318 295.938507,124.005318 
z"/>
<path fill="#486BE5" opacity="1.000000" stroke="none" 
	d="
M207.488647,122.787674 
	C206.278076,123.189285 204.603821,123.938965 202.925110,123.949127 
	C187.602341,124.041901 172.278809,124.006004 156.489517,124.015778 
	C156.023544,124.023880 155.988434,123.988174 155.984558,123.722748 
	C155.980682,123.457321 156.004913,122.960770 156.004913,122.960770 
	C173.010910,122.904762 190.016891,122.848755 207.488647,122.787674 
z"/>
<path fill="#6B8DE9" opacity="1.000000" stroke="none" 
	d="
M315.865784,69.603424 
	C315.945984,69.996330 315.512726,69.995255 315.296143,69.992996 
	C310.986328,69.706200 306.897095,69.296722 302.798950,69.165237 
	C295.985107,68.946625 289.165527,68.906433 282.147522,68.398468 
	C291.559753,68.018219 301.173523,67.975616 310.785309,68.095154 
	C312.456451,68.115944 314.119049,68.821327 315.865784,69.603424 
z"/>
<path fill="#486BE5" opacity="1.000000" stroke="none" 
	d="
M209.082764,209.996719 
	C219.225540,210.167206 229.368332,210.337708 239.793060,210.834671 
	C230.015717,211.216965 219.956421,211.272797 209.465027,210.921616 
	C209.049545,210.341980 209.066147,210.169342 209.082764,209.996719 
z"/>
<path fill="#6B8DE9" opacity="1.000000" stroke="none" 
	d="
M349.251495,189.639313 
	C349.164795,186.033905 349.388214,182.200577 349.880737,178.134674 
	C349.953766,181.738525 349.757690,185.574951 349.251495,189.639313 
z"/>
<path fill="#5B7FDF" opacity="1.000000" stroke="none" 
	d="
M154.531509,156.185150 
	C154.888535,155.955215 155.104904,155.970139 155.645203,156.011658 
	C156.222137,156.431442 156.475143,156.824631 156.850632,157.418762 
	C156.112350,157.223129 155.251602,156.826553 154.531509,156.185150 
z"/>
<path fill="#5B7FDF" opacity="1.000000" stroke="none" 
	d="
M208.300385,119.349823 
	C208.513062,119.569817 208.619003,120.104721 208.565109,120.799774 
	C208.334732,120.528191 208.264191,120.096458 208.300385,119.349823 
z"/>
<path fill="#678AE0" opacity="1.000000" stroke="none" 
	d="
M314.759094,180.154144 
	C314.909332,180.466370 314.883179,180.988815 314.695984,181.720581 
	C314.550842,181.408066 314.566742,180.886230 314.759094,180.154144 
z"/>
<path fill="#678AE0" opacity="1.000000" stroke="none" 
	d="
M314.113770,184.311554 
	C314.303986,184.570511 314.371796,185.156937 314.221832,185.884918 
	C313.999847,185.563980 313.995636,185.101501 314.113770,184.311554 
z"/>
<path fill="#5B7FDF" opacity="1.000000" stroke="none" 
	d="
M155.687073,122.950302 
	C156.004913,122.960770 155.980682,123.457321 155.967010,123.704895 
	C155.744308,123.953835 155.535278,123.955193 155.012146,123.933907 
	C154.921799,123.587456 155.145523,123.263649 155.687073,122.950302 
z"/>
<path fill="#5B7FDF" opacity="1.000000" stroke="none" 
	d="
M296.144592,124.022751 
	C295.938507,124.005318 295.971313,123.541298 295.976257,123.308884 
	C296.276703,123.225830 296.572174,123.375175 296.815857,123.789734 
	C296.764069,124.054947 296.350677,124.040176 296.144592,124.022751 
z"/>
<path fill="#5B7FDF" opacity="1.000000" stroke="none" 
	d="
M208.757401,69.169540 
	C208.999573,69.130806 209.006607,69.582458 209.015106,69.808594 
	C209.023621,70.034729 208.705322,70.077324 208.545166,70.087280 
	C208.165482,69.762276 208.208893,69.465958 208.757401,69.169540 
z"/>
<path fill="#5B7FDF" opacity="1.000000" stroke="none" 
	d="
M207.257782,157.760498 
	C207.152573,157.380081 207.349731,157.197739 207.809662,157.023819 
	C208.013168,157.129181 208.021408,157.299072 208.023178,157.724030 
	C207.842041,157.947952 207.667358,157.916794 207.257782,157.760498 
z"/>
<path fill="#5B7FDF" opacity="1.000000" stroke="none" 
	d="
M208.912933,209.971664 
	C209.066147,210.169342 209.049545,210.341980 209.014984,210.774292 
	C208.753220,210.831680 208.509384,210.629379 208.332947,210.177292 
	C208.400330,209.927490 208.743118,209.946609 208.912933,209.971664 
z"/>
</svg>