<svg version="1.1" id="Layer_1" xmlns="http://www.w3.org/2000/svg" xmlns:xlink="http://www.w3.org/1999/xlink" x="0px" y="0px"
	 width="100%" viewBox="0 0 666 437" enable-background="new 0 0 666 437" xml:space="preserve">
<path fill="#FEFFFF" opacity="1.000000" stroke="none" 
	d="
M284.000000,438.000000 
	C189.686066,438.000000 95.372131,438.000000 1.029098,438.000000 
	C1.029098,292.382690 1.029098,146.765381 1.029098,1.074029 
	C222.904968,1.074029 444.809967,1.074029 666.857483,1.074029 
	C666.857483,146.666580 666.857483,292.333282 666.857483,438.000000 
	C576.226685,438.000000 485.578339,438.000000 394.665894,437.687683 
	C404.284210,433.259247 414.166656,429.143127 424.026947,425.011841 
	C424.004791,424.996674 424.020447,425.047943 424.364777,425.022858 
	C425.660156,424.382263 426.611176,423.766785 427.683105,423.178894 
	C427.804016,423.206482 427.951752,423.007233 428.313171,422.963013 
	C438.554840,416.052124 448.435120,409.185394 458.273041,402.244904 
	C458.230682,402.171112 458.238281,402.341064 458.571594,402.286285 
	C460.360901,400.907349 461.816895,399.583160 463.238617,398.196655 
	C463.204376,398.134338 463.193970,398.276184 463.462189,398.209839 
	C463.923706,397.846558 464.117004,397.549561 464.273193,397.289001 
	C464.236084,397.325409 464.339844,397.332184 464.634644,397.237915 
	C465.743713,396.244324 466.557953,395.345032 467.367004,394.405640 
	C467.361816,394.365509 467.442383,394.373566 467.729004,394.264069 
	C469.033264,393.117493 470.050903,392.080383 471.036438,391.024109 
	C471.004272,391.004944 471.040253,391.070618 471.337219,390.999512 
	C472.112335,390.300903 472.590454,389.673401 473.037170,389.022461 
	C473.005768,388.999054 473.049469,389.063934 473.337280,388.952759 
	C474.200562,388.017670 474.775970,387.193787 475.362823,386.319336 
	C475.374268,386.268799 475.297760,386.338776 475.555054,386.270721 
	C475.987854,385.910339 476.163361,385.618042 476.165680,385.252441 
	C475.992523,385.179199 476.324249,385.356506 476.626343,385.270691 
	C477.726471,384.234131 478.524506,383.283356 479.164246,382.207153 
	C479.005981,382.081757 479.337585,382.311859 479.633545,382.177185 
	C484.290039,376.339661 488.650574,370.636780 493.105255,364.868317 
	C493.199402,364.802704 493.153778,364.577789 493.464661,364.407990 
	C494.300171,363.232697 494.824829,362.227203 495.272461,361.216156 
	C495.195374,361.210602 495.319153,361.303131 495.604126,361.186890 
	C496.258240,360.356567 496.627411,359.642487 497.094025,358.856628 
	C497.191467,358.784821 497.133179,358.549835 497.427673,358.390198 
	C498.120514,357.478546 498.518860,356.726593 499.188538,355.775085 
	C501.075226,352.435181 502.690613,349.294861 504.242859,346.153748 
	C504.179688,346.152924 504.247620,346.259399 504.543457,346.101807 
	C506.551880,342.290527 508.264465,338.636841 509.988525,334.991577 
	C510.000000,335.000000 509.981018,334.978394 510.250610,334.792908 
	C510.957825,333.382385 511.395447,332.157379 511.897766,330.912964 
	C511.962494,330.893585 511.901581,330.772949 512.148621,330.563904 
	C512.865540,328.900665 513.335449,327.446503 513.967712,325.788635 
	C514.147278,325.248138 514.164368,324.911316 514.456238,324.316101 
	C515.909119,320.379486 517.087219,316.701233 518.314880,312.908875 
	C518.364380,312.794769 518.190063,312.617340 518.476929,312.347839 
	C521.187012,298.727509 523.610352,285.376678 526.190552,271.648682 
	C526.510437,269.784241 526.815918,268.296936 526.815979,266.809631 
	C526.819702,196.859543 526.796936,126.909462 526.868408,56.527382 
	C526.959595,54.311546 526.959595,52.527706 526.959595,50.543430 
	C525.377319,50.355911 524.258301,50.108311 523.139038,50.107391 
	C491.045929,50.081009 458.952789,50.068668 426.859772,50.115536 
	C425.658630,50.117290 424.458374,50.733570 423.122620,51.374069 
	C423.040924,52.128082 423.094269,52.571503 423.083466,53.478691 
	C423.063324,69.295120 423.107300,84.647781 423.061646,100.429108 
	C422.385864,104.342407 424.765381,104.038414 426.978699,104.036995 
	C440.456909,104.028336 453.935150,104.031311 467.413300,104.057640 
	C469.169312,104.061073 470.924988,104.220886 472.097534,104.279243 
	C472.097534,161.931808 472.097534,218.961838 472.013428,276.424286 
	C471.266083,280.357391 470.750366,283.893616 469.917023,287.353363 
	C460.278015,327.372650 437.062836,357.039093 401.097687,376.713745 
	C383.987335,386.073975 365.339203,390.987274 346.042816,392.715363 
	C338.417969,393.398193 330.548279,391.892395 322.841125,390.960815 
	C314.800568,389.989014 306.860992,388.826599 299.013062,386.212463 
	C273.170563,377.604492 251.568771,363.066956 234.359985,342.026093 
	C219.264160,323.568665 210.304535,302.283722 205.894333,278.557556 
	C205.376083,269.331848 204.379349,260.533661 204.348038,251.732056 
	C204.173218,202.578186 204.231934,153.423462 204.659668,104.186142 
	C221.384369,104.103256 237.660233,104.103256 254.204971,104.103256 
	C254.385986,101.799721 254.622849,100.162033 254.626495,98.523811 
	C254.658752,84.027405 254.495438,69.528198 254.749374,55.036121 
	C254.822891,50.841057 253.247498,50.127605 249.512009,50.143944 
	C218.686722,50.278770 187.859741,50.349457 157.035675,50.117775 
	C151.916458,50.079300 150.662109,51.513123 150.675461,56.568291 
	C150.852844,123.718193 150.687088,190.869080 150.912338,258.018707 
	C150.947937,268.627106 151.489456,279.423279 153.495789,289.804321 
	C164.909714,348.861694 196.686356,393.638000 249.403275,422.905029 
	C260.353821,428.984497 272.438171,433.021606 284.000000,438.000000 
M444.090118,184.779739 
	C441.107788,184.761932 438.125458,184.736862 435.143097,184.727478 
	C411.781555,184.654037 388.419983,184.583588 365.088379,184.189240 
	C365.088379,184.189240 364.827759,183.996140 364.919556,183.062820 
	C364.919556,156.813614 364.919556,130.564407 364.919556,104.117249 
	C347.310974,104.117249 330.250977,104.117249 312.770416,104.117249 
	C312.770416,130.982285 312.770416,157.573349 312.483368,184.264038 
	C312.306671,184.387543 312.202118,184.555832 311.198944,184.722382 
	C284.799957,184.722382 258.400970,184.722382 232.061615,184.722382 
	C232.061615,202.384048 232.061615,219.189072 232.439316,236.771194 
	C258.956207,236.850479 285.473083,236.929764 312.000000,237.000000 
	C312.000000,237.000000 311.992096,237.010239 312.198303,237.928619 
	C312.268677,262.344299 312.328217,286.759979 312.429901,311.175537 
	C312.438110,313.141083 312.735840,315.105469 313.155945,317.677368 
	C313.773438,317.740540 314.390900,317.803741 315.938507,317.979950 
	C331.289703,317.934753 346.640900,317.889557 362.651459,318.068115 
	C363.363617,317.688629 364.075775,317.309174 364.988495,316.020691 
	C365.005585,291.365753 365.112549,266.710205 364.949310,242.056442 
	C364.922791,238.048904 366.128723,237.001160 370.031036,237.028061 
	C393.519104,237.189926 417.008942,237.127335 440.497925,237.053604 
	C442.129852,237.048492 443.759644,236.345993 445.755615,235.097229 
	C445.689423,219.035690 445.623230,202.974167 445.845215,186.379395 
	C445.560425,185.939560 445.275665,185.499710 444.090118,184.779739 
z"/>
<path fill="#456AF4" opacity="1.000000" stroke="none" 
	d="
M205.861603,278.983490 
	C210.304535,302.283722 219.264160,323.568665 234.359985,342.026093 
	C251.568771,363.066956 273.170563,377.604492 299.013062,386.212463 
	C306.860992,388.826599 314.800568,389.989014 322.841125,390.960815 
	C330.548279,391.892395 338.417969,393.398193 346.042816,392.715363 
	C365.339203,390.987274 383.987335,386.073975 401.097687,376.713745 
	C437.062836,357.039093 460.278015,327.372650 469.917023,287.353363 
	C470.750366,283.893616 471.266083,280.357391 472.326416,276.236053 
	C473.474915,272.970367 474.875732,270.326843 474.881989,267.680054 
	C475.008789,214.237778 474.938049,160.795059 475.045990,107.352715 
	C475.054504,103.134041 473.564636,101.900085 469.500671,101.948128 
	C454.685394,102.123253 439.866730,102.010345 425.031006,101.536987 
	C425.032806,84.706268 425.052887,68.344551 425.536987,51.972450 
	C431.815613,51.959843 437.630249,51.955868 443.444885,51.955700 
	C469.029297,51.954971 494.613708,51.948139 520.198120,51.968082 
	C522.403076,51.969803 525.183472,51.213188 525.098633,55.452209 
	C525.055115,126.277870 525.048462,196.635300 525.027588,267.393005 
	C524.977478,270.699707 525.331970,273.674744 524.835266,276.500183 
	C523.111511,286.306335 521.072998,296.056885 519.199585,305.837250 
	C518.770081,308.079498 518.521790,310.356384 518.190063,312.617340 
	C518.190063,312.617340 518.364380,312.794769 517.919189,312.954102 
	C516.376526,316.933777 515.278992,320.754120 514.181458,324.574493 
	C514.164368,324.911316 514.147278,325.248138 513.625000,325.871368 
	C512.713745,327.696167 512.307678,329.234558 511.901581,330.772949 
	C511.901581,330.772949 511.962494,330.893585 511.556488,331.006531 
	C510.760651,332.405792 510.370819,333.692078 509.981018,334.978394 
	C509.981018,334.978394 510.000000,335.000000 509.640259,335.060425 
	C507.602905,338.833710 505.925232,342.546539 504.247620,346.259399 
	C504.247620,346.259399 504.179688,346.152924 503.882141,346.225098 
	C501.710419,349.527374 499.836273,352.757507 497.701019,356.227997 
	C497.337677,357.162170 497.235443,357.855988 497.133179,358.549835 
	C497.133179,358.549835 497.191467,358.784821 496.751343,358.925232 
	C495.980530,359.811462 495.649841,360.557281 495.319153,361.303131 
	C495.319153,361.303131 495.195374,361.210602 494.890137,361.272705 
	C494.107849,362.415771 493.630829,363.496796 493.153778,364.577789 
	C493.153778,364.577789 493.199402,364.802704 492.755005,364.919128 
	C488.829163,369.119354 485.260864,373.133789 481.914215,377.325226 
	C480.769379,378.759094 480.180481,380.636871 479.337585,382.311859 
	C479.337585,382.311859 479.005981,382.081757 478.807983,382.132568 
	C477.848083,383.241089 477.086151,384.298798 476.324219,385.356506 
	C476.324249,385.356506 475.992523,385.179199 475.867981,385.256500 
	C475.594910,385.668793 475.446320,386.003784 475.297760,386.338776 
	C475.297760,386.338776 475.374268,386.268799 474.988037,386.236511 
	C474.084351,387.157471 473.566895,388.110718 473.049469,389.063934 
	C473.049469,389.063934 473.005768,388.999054 472.702576,389.040527 
	C471.946350,389.744873 471.493317,390.407745 471.040283,391.070618 
	C471.040253,391.070618 471.004272,391.004944 470.670074,391.037201 
	C469.371399,392.170837 468.406891,393.272217 467.442383,394.373596 
	C467.442383,394.373566 467.361816,394.365509 466.991455,394.289185 
	C465.860718,395.252625 465.100281,396.292419 464.339844,397.332184 
	C464.339844,397.332184 464.236084,397.325409 463.981018,397.315979 
	C463.548615,397.629730 463.371307,397.952972 463.193970,398.276184 
	C463.193970,398.276184 463.204376,398.134338 462.878998,398.137665 
	C461.115173,399.541016 459.676727,400.941040 458.238281,402.341064 
	C458.238281,402.341064 458.230682,402.171112 457.903870,402.165009 
	C457.101410,402.285156 456.549744,402.296844 456.161224,402.554535 
	C448.188202,407.842194 440.189453,413.093445 432.311188,418.519470 
	C430.626801,419.679626 429.393097,421.494171 427.951752,423.007233 
	C427.951752,423.007233 427.804016,423.206482 427.277283,423.140259 
	C425.840515,423.731995 424.930481,424.389984 424.020447,425.047974 
	C424.020447,425.047943 424.004791,424.996674 423.630157,424.996826 
	C422.597137,425.036194 421.873688,424.910095 421.290314,425.139801 
	C414.205627,427.929504 407.102203,430.678558 400.091522,433.645813 
	C397.283142,434.834473 394.690704,436.533356 392.000000,438.000000 
	C356.312439,438.000000 320.624878,438.000000 284.468658,438.000000 
	C272.438171,433.021606 260.353821,428.984497 249.403275,422.905029 
	C196.686356,393.638000 164.909714,348.861694 153.495789,289.804321 
	C151.489456,279.423279 150.947937,268.627106 150.912338,258.018707 
	C150.687088,190.869080 150.852844,123.718193 150.675461,56.568291 
	C150.662109,51.513123 151.916458,50.079300 157.035675,50.117775 
	C187.859741,50.349457 218.686722,50.278770 249.512009,50.143944 
	C253.247498,50.127605 254.822891,50.841057 254.749374,55.036121 
	C254.495438,69.528198 254.658752,84.027405 254.626495,98.523811 
	C254.622849,100.162033 254.385986,101.799721 254.204971,104.103256 
	C237.660233,104.103256 221.384369,104.103256 204.399231,104.002365 
	C203.459351,105.430931 203.036362,106.959442 203.028839,108.490005 
	C202.972519,119.965889 202.997299,131.442184 202.998322,142.918350 
	C203.001968,184.498642 202.932800,226.079300 203.134262,267.658630 
	C203.152573,271.437897 204.911163,275.208740 205.861603,278.983490 
z"/>
<path fill="#5273D8" opacity="1.000000" stroke="none" 
	d="
M392.333313,438.000000 
	C394.690704,436.533356 397.283142,434.834473 400.091522,433.645813 
	C407.102203,430.678558 414.205627,427.929504 421.290314,425.139801 
	C421.873688,424.910095 422.597137,425.036194 423.652313,425.011963 
	C414.166656,429.143127 404.284210,433.259247 394.200867,437.687683 
	C393.555542,438.000000 393.111115,438.000000 392.333313,438.000000 
z"/>
<path fill="#456AF4" opacity="1.000000" stroke="none" 
	d="
M364.827759,183.996140 
	C364.827759,183.996140 365.088379,184.189240 365.266785,184.745270 
	C367.213531,185.535812 368.981506,185.970856 370.750305,185.974472 
	C393.511871,186.021103 416.274231,186.095245 439.034576,185.921997 
	C442.977356,185.891998 444.158295,187.019043 444.088531,190.972626 
	C443.857056,204.093887 444.032745,217.221954 443.954010,230.346832 
	C443.944641,231.905304 443.328339,233.460129 442.594360,235.013336 
	C441.131195,235.010712 440.067078,235.011383 438.534058,235.008774 
	C416.710449,235.009430 395.355682,235.013367 373.551483,235.014557 
	C372.436188,235.010330 371.770386,235.007172 371.104553,235.007675 
	C363.008057,235.013763 363.005890,235.013901 363.005280,242.975784 
	C363.003510,265.280579 362.812012,287.588196 363.143524,309.888062 
	C363.222290,315.186188 361.548615,316.253296 356.669586,316.121033 
	C344.361053,315.787323 332.032196,315.803284 319.722595,316.115784 
	C315.109039,316.232880 313.843781,314.872711 313.889984,310.276001 
	C314.119141,287.474182 314.032776,264.668549 313.904663,241.865112 
	C313.895538,240.243286 312.658264,238.628372 311.992096,237.010239 
	C311.992096,237.010239 312.000000,237.000000 311.912903,236.605713 
	C309.994843,235.810547 308.165039,235.066696 306.332764,235.060745 
	C282.227112,234.982269 258.121094,235.007828 234.007462,234.538269 
	C233.996353,219.769211 234.146912,205.466476 233.894775,191.170868 
	C233.820145,186.939667 235.189423,185.882080 239.264252,185.914886 
	C261.710510,186.095657 284.159058,186.031479 306.606506,185.949738 
	C308.462311,185.942963 310.315338,185.180344 312.169678,184.768906 
	C312.202118,184.555832 312.306671,184.387543 312.960571,183.921326 
	C313.622772,181.782867 313.965637,179.987396 313.968719,178.191330 
	C314.006378,156.205933 313.994202,134.220459 313.994904,112.235001 
	C313.994965,110.309349 313.994904,108.383690 313.994904,105.942253 
	C321.513977,105.942253 328.233032,105.944511 334.952087,105.940506 
	C336.449768,105.939613 337.949554,105.963699 339.444733,105.895668 
	C345.402557,105.624580 351.356354,105.202049 357.316772,105.073380 
	C361.163055,104.990349 363.163727,106.451004 363.114349,111.029709 
	C362.870117,133.678757 362.963104,156.332077 363.079498,178.983154 
	C363.088074,180.657104 364.218719,182.325287 364.827759,183.996140 
z"/>
<path fill="#4E71DC" opacity="1.000000" stroke="none" 
	d="
M439.002960,235.012070 
	C440.067078,235.011383 441.131195,235.010712 442.749268,235.242249 
	C443.998962,235.638916 444.694672,235.803360 445.390411,235.967804 
	C443.759644,236.345993 442.129852,237.048492 440.497925,237.053604 
	C417.008942,237.127335 393.519104,237.189926 370.031036,237.028061 
	C366.128723,237.001160 364.922791,238.048904 364.949310,242.056442 
	C365.112549,266.710205 365.005585,291.365753 364.580566,316.491302 
	C363.445801,317.256073 362.718964,317.550232 361.992096,317.844391 
	C346.640900,317.889557 331.289703,317.934753 315.282593,317.695404 
	C314.050781,317.297363 313.474915,317.183868 312.899017,317.070374 
	C312.735840,315.105469 312.438110,313.141083 312.429901,311.175537 
	C312.328217,286.759979 312.268677,262.344299 312.095215,237.469421 
	C312.658264,238.628372 313.895538,240.243286 313.904663,241.865112 
	C314.032776,264.668549 314.119141,287.474182 313.889984,310.276001 
	C313.843781,314.872711 315.109039,316.232880 319.722595,316.115784 
	C332.032196,315.803284 344.361053,315.787323 356.669586,316.121033 
	C361.548615,316.253296 363.222290,315.186188 363.143524,309.888062 
	C362.812012,287.588196 363.003510,265.280579 363.005280,242.975784 
	C363.005890,235.013901 363.008057,235.013763 371.104553,235.007675 
	C371.770386,235.007172 372.436188,235.010330 373.849579,235.304794 
	C375.241089,235.724457 375.884918,235.961121 376.529022,235.961823 
	C396.124756,235.983459 415.720612,235.999420 435.316193,235.942322 
	C436.546021,235.938751 437.774078,235.336044 439.002960,235.012070 
z"/>
<path fill="#587BDD" opacity="1.000000" stroke="none" 
	d="
M425.049347,102.005997 
	C439.866730,102.010345 454.685394,102.123253 469.500671,101.948128 
	C473.564636,101.900085 475.054504,103.134041 475.045990,107.352715 
	C474.938049,160.795059 475.008789,214.237778 474.881989,267.680054 
	C474.875732,270.326843 473.474915,272.970367 472.410492,275.803650 
	C472.097534,218.961838 472.097534,161.931808 472.097534,104.279243 
	C470.924988,104.220886 469.169312,104.061073 467.413300,104.057640 
	C453.935150,104.031311 440.456909,104.028336 426.978699,104.036995 
	C424.765381,104.038414 422.385864,104.342407 423.284729,100.602371 
	C424.081451,100.899963 424.565399,101.452980 425.049347,102.005997 
z"/>
<path fill="#5477EA" opacity="1.000000" stroke="none" 
	d="
M525.041870,266.992737 
	C525.048462,196.635300 525.055115,126.277870 525.307373,55.605400 
	C525.961060,55.846703 526.369141,56.403038 526.777222,56.959373 
	C526.796936,126.909462 526.819702,196.859543 526.815979,266.809631 
	C526.815918,268.296936 526.510437,269.784241 526.164185,271.263123 
	C525.667969,269.834015 525.354919,268.413391 525.041870,266.992737 
z"/>
<path fill="#4164D2" opacity="1.000000" stroke="none" 
	d="
M364.873657,183.529480 
	C364.218719,182.325287 363.088074,180.657104 363.079498,178.983154 
	C362.963104,156.332077 362.870117,133.678757 363.114349,111.029709 
	C363.163727,106.451004 361.163055,104.990349 357.316772,105.073380 
	C351.356354,105.202049 345.402557,105.624580 339.444733,105.895668 
	C337.949554,105.963699 336.449768,105.939613 334.952087,105.940506 
	C328.233032,105.944511 321.513977,105.942253 313.994904,105.942253 
	C313.994904,108.383690 313.994965,110.309349 313.994904,112.235001 
	C313.994202,134.220459 314.006378,156.205933 313.968719,178.191330 
	C313.965637,179.987396 313.622772,181.782867 313.104095,183.871521 
	C312.770416,157.573349 312.770416,130.982285 312.770416,104.117249 
	C330.250977,104.117249 347.310974,104.117249 364.919556,104.117249 
	C364.919556,130.564407 364.919556,156.813614 364.873657,183.529480 
z"/>
<path fill="#6185E3" opacity="1.000000" stroke="none" 
	d="
M526.868408,56.527378 
	C526.369141,56.403038 525.961060,55.846703 525.344238,55.137173 
	C525.183472,51.213188 522.403076,51.969803 520.198120,51.968082 
	C494.613708,51.948139 469.029297,51.954971 443.444885,51.955700 
	C437.630249,51.955868 431.815613,51.959843 425.272156,51.940262 
	C424.366211,51.912827 424.189026,51.907196 423.929993,51.726921 
	C423.695435,51.336105 423.498627,51.173176 423.257721,51.063477 
	C424.458374,50.733570 425.658630,50.117290 426.859772,50.115536 
	C458.952789,50.068668 491.045929,50.081009 523.139038,50.107391 
	C524.258301,50.108311 525.377319,50.355911 526.959595,50.543430 
	C526.959595,52.527706 526.959595,54.311546 526.868408,56.527378 
z"/>
<path fill="#3C5AD2" opacity="1.000000" stroke="none" 
	d="
M205.894318,278.557556 
	C204.911163,275.208740 203.152573,271.437897 203.134262,267.658630 
	C202.932800,226.079300 203.001968,184.498642 202.998322,142.918350 
	C202.997299,131.442184 202.972519,119.965889 203.028839,108.490005 
	C203.036362,106.959442 203.459351,105.430931 203.950394,104.085251 
	C204.231934,153.423462 204.173218,202.578186 204.348038,251.732056 
	C204.379349,260.533661 205.376083,269.331848 205.894318,278.557556 
z"/>
<path fill="#4062D7" opacity="1.000000" stroke="none" 
	d="
M311.684326,184.745636 
	C310.315338,185.180344 308.462311,185.942963 306.606506,185.949738 
	C284.159058,186.031479 261.710510,186.095657 239.264252,185.914886 
	C235.189423,185.882080 233.820145,186.939667 233.894775,191.170868 
	C234.146912,205.466476 233.996353,219.769211 233.844131,234.778473 
	C233.146225,235.656525 232.603912,235.825317 232.061615,235.994095 
	C232.061615,219.189072 232.061615,202.384048 232.061615,184.722382 
	C258.400970,184.722382 284.799957,184.722382 311.684326,184.745636 
z"/>
<path fill="#3F61DA" opacity="1.000000" stroke="none" 
	d="
M445.572998,235.532516 
	C444.694672,235.803360 443.998962,235.638916 443.148315,235.245560 
	C443.328339,233.460129 443.944641,231.905304 443.954010,230.346832 
	C444.032745,217.221954 443.857056,204.093887 444.088531,190.972626 
	C444.158295,187.019043 442.977356,185.891998 439.034576,185.921997 
	C416.274231,186.095245 393.511871,186.021103 370.750305,185.974472 
	C368.981506,185.970856 367.213531,185.535812 365.251831,184.906754 
	C388.419983,184.583588 411.781555,184.654037 435.143097,184.727478 
	C438.125458,184.736862 441.107788,184.761932 444.542480,185.172470 
	C445.182251,186.014343 445.369659,186.463486 445.557068,186.912628 
	C445.623230,202.974167 445.689423,219.035690 445.572998,235.532516 
z"/>
<path fill="#4E71DC" opacity="1.000000" stroke="none" 
	d="
M232.250458,236.382645 
	C232.603912,235.825317 233.146225,235.656525 233.851852,235.247528 
	C258.121094,235.007828 282.227112,234.982269 306.332764,235.060745 
	C308.165039,235.066696 309.994843,235.810547 311.907898,236.610229 
	C285.473083,236.929764 258.956207,236.850479 232.250458,236.382645 
z"/>
<path fill="#3E5DEA" opacity="1.000000" stroke="none" 
	d="
M424.011871,51.901569 
	C424.189026,51.907196 424.366211,51.912827 424.808167,51.950642 
	C425.052887,68.344551 425.032806,84.706268 425.031006,101.536995 
	C424.565399,101.452980 424.081451,100.899963 423.374390,100.173698 
	C423.107300,84.647781 423.063324,69.295120 423.287598,53.346771 
	C423.794952,52.514668 423.946960,52.231499 424.011871,51.901569 
z"/>
<path fill="#5273D8" opacity="1.000000" stroke="none" 
	d="
M428.313171,422.963013 
	C429.393097,421.494171 430.626801,419.679626 432.311188,418.519470 
	C440.189453,413.093445 448.188202,407.842194 456.161224,402.554535 
	C456.549744,402.296844 457.101410,402.285156 457.946228,402.238800 
	C448.435120,409.185394 438.554840,416.052124 428.313171,422.963013 
z"/>
<path fill="#4B6ED2" opacity="1.000000" stroke="none" 
	d="
M525.027588,267.393005 
	C525.354919,268.413391 525.667969,269.834015 526.007324,271.640259 
	C523.610352,285.376678 521.187012,298.727509 518.476929,312.347839 
	C518.521790,310.356384 518.770081,308.079498 519.199585,305.837250 
	C521.072998,296.056885 523.111511,286.306335 524.835266,276.500183 
	C525.331970,273.674744 524.977478,270.699707 525.027588,267.393005 
z"/>
<path fill="#5273D8" opacity="1.000000" stroke="none" 
	d="
M479.633545,382.177185 
	C480.180481,380.636871 480.769379,378.759094 481.914215,377.325226 
	C485.260864,373.133789 488.829163,369.119354 492.660828,364.984741 
	C488.650574,370.636780 484.290039,376.339661 479.633545,382.177185 
z"/>
<path fill="#4B6ED2" opacity="1.000000" stroke="none" 
	d="
M504.543457,346.101807 
	C505.925232,342.546539 507.602905,338.833710 509.628784,335.052002 
	C508.264465,338.636841 506.551880,342.290527 504.543457,346.101807 
z"/>
<path fill="#4B6ED2" opacity="1.000000" stroke="none" 
	d="
M514.456238,324.316101 
	C515.278992,320.754120 516.376526,316.933777 517.869690,313.068176 
	C517.087219,316.701233 515.909119,320.379486 514.456238,324.316101 
z"/>
<path fill="#4B6ED2" opacity="1.000000" stroke="none" 
	d="
M497.962128,355.987671 
	C499.836273,352.757507 501.710419,349.527374 503.945312,346.225891 
	C502.690613,349.294861 501.075226,352.435181 498.949768,355.778290 
	C498.439697,355.981079 497.962128,355.987671 497.962128,355.987671 
z"/>
<path fill="#5273D8" opacity="1.000000" stroke="none" 
	d="
M458.571594,402.286285 
	C459.676727,400.941040 461.115173,399.541016 462.913239,398.200012 
	C461.816895,399.583160 460.360901,400.907349 458.571594,402.286285 
z"/>
<path fill="#4B6ED2" opacity="1.000000" stroke="none" 
	d="
M512.148621,330.563904 
	C512.307678,329.234558 512.713745,327.696167 513.462585,326.075043 
	C513.335449,327.446503 512.865540,328.900665 512.148621,330.563904 
z"/>
<path fill="#5273D8" opacity="1.000000" stroke="none" 
	d="
M467.729004,394.264099 
	C468.406891,393.272217 469.371399,392.170837 470.702209,391.056396 
	C470.050903,392.080383 469.033264,393.117493 467.729004,394.264099 
z"/>
<path fill="#5273D8" opacity="1.000000" stroke="none" 
	d="
M464.634644,397.237915 
	C465.100281,396.292419 465.860718,395.252625 466.996674,394.329285 
	C466.557953,395.345032 465.743713,396.244324 464.634644,397.237915 
z"/>
<path fill="#4B6ED2" opacity="1.000000" stroke="none" 
	d="
M510.250580,334.792908 
	C510.370819,333.692078 510.760651,332.405792 511.491760,331.025940 
	C511.395447,332.157379 510.957825,333.382385 510.250580,334.792908 
z"/>
<path fill="#5273D8" opacity="1.000000" stroke="none" 
	d="
M476.626343,385.270691 
	C477.086151,384.298798 477.848083,383.241089 478.966248,382.257996 
	C478.524506,383.283356 477.726471,384.234131 476.626343,385.270691 
z"/>
<path fill="#5273D8" opacity="1.000000" stroke="none" 
	d="
M424.364777,425.022888 
	C424.930481,424.389984 425.840515,423.731995 427.156372,423.112640 
	C426.611176,423.766785 425.660156,424.382263 424.364777,425.022888 
z"/>
<path fill="#5273D8" opacity="1.000000" stroke="none" 
	d="
M493.464661,364.407990 
	C493.630829,363.496796 494.107849,362.415771 494.967224,361.278259 
	C494.824829,362.227203 494.300171,363.232697 493.464661,364.407990 
z"/>
<path fill="#5273D8" opacity="1.000000" stroke="none" 
	d="
M473.337280,388.952759 
	C473.566895,388.110718 474.084351,387.157471 474.976562,386.287079 
	C474.775970,387.193787 474.200562,388.017670 473.337280,388.952759 
z"/>
<path fill="#5273D8" opacity="1.000000" stroke="none" 
	d="
M497.701019,356.227997 
	C497.962128,355.987671 498.439697,355.981079 498.678436,355.977844 
	C498.518860,356.726593 498.120514,357.478546 497.427673,358.390198 
	C497.235443,357.855988 497.337677,357.162170 497.701019,356.227997 
z"/>
<path fill="#5273D8" opacity="1.000000" stroke="none" 
	d="
M495.604126,361.186890 
	C495.649841,360.557281 495.980530,359.811462 496.653931,358.997009 
	C496.627411,359.642487 496.258240,360.356567 495.604126,361.186890 
z"/>
<path fill="#5273D8" opacity="1.000000" stroke="none" 
	d="
M471.337250,390.999512 
	C471.493317,390.407745 471.946350,389.744873 472.733948,389.063934 
	C472.590454,389.673401 472.112335,390.300903 471.337250,390.999512 
z"/>
<path fill="#7794E7" opacity="1.000000" stroke="none" 
	d="
M362.321777,317.956238 
	C362.718964,317.550232 363.445801,317.256073 364.480286,316.945801 
	C364.075775,317.309174 363.363617,317.688629 362.321777,317.956238 
z"/>
<path fill="#4E71DC" opacity="1.000000" stroke="none" 
	d="
M445.701141,186.645996 
	C445.369659,186.463486 445.182251,186.014343 444.992889,185.312531 
	C445.275665,185.499710 445.560425,185.939560 445.701141,186.645996 
z"/>
<path fill="#587BDD" opacity="1.000000" stroke="none" 
	d="
M423.929993,51.726921 
	C423.946960,52.231499 423.794952,52.514668 423.351746,52.882999 
	C423.094269,52.571503 423.040924,52.128082 423.122620,51.374069 
	C423.498627,51.173176 423.695435,51.336105 423.929993,51.726921 
z"/>
<path fill="#7794E7" opacity="1.000000" stroke="none" 
	d="
M313.027466,317.373871 
	C313.474915,317.183868 314.050781,317.297363 314.817535,317.638916 
	C314.390900,317.803741 313.773438,317.740540 313.027466,317.373871 
z"/>
<path fill="#5273D8" opacity="1.000000" stroke="none" 
	d="
M463.462189,398.209839 
	C463.371307,397.952972 463.548615,397.629730 464.018127,397.279541 
	C464.117004,397.549561 463.923706,397.846558 463.462189,398.209839 
z"/>
<path fill="#5273D8" opacity="1.000000" stroke="none" 
	d="
M475.555054,386.270721 
	C475.446320,386.003784 475.594910,385.668793 476.041138,385.329773 
	C476.163361,385.618042 475.987854,385.910339 475.555054,386.270721 
z"/>
<path fill="#3F61DA" opacity="1.000000" stroke="none" 
	d="
M438.534058,235.008789 
	C437.774078,235.336044 436.546021,235.938751 435.316193,235.942322 
	C415.720612,235.999420 396.124756,235.983459 376.529022,235.961823 
	C375.884918,235.961121 375.241089,235.724457 374.299042,235.307556 
	C395.355682,235.013367 416.710449,235.009430 438.534058,235.008789 
z"/>
</svg>